# xmcd
#
# Track frame offsets: 
#        150
#        10495
#        34832
#        55767
#        81872
#        102797
#        129487
#        150885
#        174462
#        196930
#
# Disc length: 2924 seconds
#
# Revision: 1
# Processed by: cddbd v1.5.2PL0 Copyright (c) Steve Scherf et al.
# Submitted via: ExactAudioCopy v0.99pb4
#
DISCID=710b6a0a
DTITLE=The Dells - Reminiscing
DYEAR=2000
DGENRE=Soul
TTITLE0=Dells Welcome/The Love We Had
TTITLE1=Say That You'll Stay
TTITLE2=You Were My 911
TTITLE3=Reminiscing
TTITLE4=Here 4 U
TTITLE5=Corner Cafe
TTITLE6=The Whole Truth
TTITLE7=Where Do We Go From Here
TTITLE8=Baby Come Back
TTITLE9=I Need You
EXTD=
EXTT0=
EXTT1=
EXTT2=
EXTT3=
EXTT4=
EXTT5=
EXTT6=
EXTT7=
EXTT8=
EXTT9=
PLAYORDER=
